# xmcd
#
# Track frame offsets: 
#        150
#        22970
#        44423
#        61576
#        80936
#        97649
#        116823
#        135673
#        155236
#        170886
#        198831
#        221458
#        239856
#        258481
#        276483
#        299533
#        319273
#        338827
#
# Disc length: 4773 seconds
#
# Revision: 1
# Processed by: cddbd v1.5.2PL0 Copyright (c) Steve Scherf et al.
# Submitted via: ExactAudioCopyFreeDBPlugin 1.0
#
DISCID=1b12a312
DTITLE=張立基 - 星聲傳集 張立基
DYEAR=2002
DGENRE=New Age
TTITLE0=重新開始
TTITLE1=妳好嗎？！
TTITLE2=異性相吸
TTITLE3=Electric Girl
TTITLE4=前度情人
TTITLE5=今夜你是否一人？！
TTITLE6=震撼
TTITLE7=My Baby
TTITLE8=妳與我之間
TTITLE9=妳的知己
TTITLE10=I Like It (Hip Hop Remix)
TTITLE11=急行夜車
TTITLE12=I Swear To You
TTITLE13=末世風情
TTITLE14=自焚
TTITLE15=燃燒我的夢
TTITLE16=一切都為愛(葉玉卿合唱)
TTITLE17=盼你此刻奔向我
EXTD=YEAR: 2002
EXTT0=
EXTT1=
EXTT2=
EXTT3=
EXTT4=
EXTT5=
EXTT6=
EXTT7=
EXTT8=
EXTT9=
EXTT10=
EXTT11=
EXTT12=
EXTT13=
EXTT14=
EXTT15=
EXTT16=
EXTT17=
PLAYORDER=
